<?xml version="1.0" standalone="no"?>
<!DOCTYPE svg PUBLIC "-//W3C//DTD SVG 20010904//EN"
 "http://www.w3.org/TR/2001/REC-SVG-20010904/DTD/svg10.dtd">
<svg version="1.0" xmlns="http://www.w3.org/2000/svg"
 width="512.000000pt" height="512.000000pt" viewBox="0 0 512.000000 512.000000"
 preserveAspectRatio="xMidYMid meet">
<metadata>
Created by potrace 1.11, written by Peter Selinger 2001-2013
</metadata>
<g transform="translate(0.000000,512.000000) scale(0.100000,-0.100000)"
fill="#000000" stroke="none">
<path d="M1030 4483 c-235 -14 -536 -67 -715 -127 -144 -49 -281 -120 -300
-157 -13 -24 -15 -260 -15 -1765 l0 -1736 34 -34 c44 -44 80 -44 167 1 193
100 445 151 804 162 416 12 936 -52 1310 -162 108 -32 131 -35 243 -35 111 0
135 3 245 35 567 164 1327 210 1796 110 104 -22 240 -69 320 -110 87 -45 123
-45 167 -1 l34 34 0 1736 c0 1505 -2 1741 -15 1765 -10 20 -42 43 -105 76
-461 238 -1318 284 -1940 105 -52 -15 -109 -34 -126 -43 -81 -42 -63 -170 28
-192 17 -4 51 1 90 14 324 105 797 145 1193 101 226 -26 460 -81 593 -141 l72
-32 0 -1593 0 -1592 -87 29 c-102 35 -286 73 -438 91 -164 19 -651 16 -845 -5
-297 -33 -616 -93 -806 -152 -116 -36 -230 -35 -367 5 -220 63 -491 114 -787
147 -194 21 -681 24 -845 5 -152 -18 -336 -56 -438 -91 l-87 -29 0 1593 0
1593 73 31 c251 104 591 156 1027 155 470 -1 862 -65 1155 -191 l90 -38 5
-1405 c5 -1483 4 -1435 50 -1460 35 -19 97 -12 127 14 l28 24 3 1460 2 1459
-22 28 c-28 36 -188 112 -343 164 -367 123 -899 182 -1375 154z"/>
<path d="M1321 3708 c-28 -71 -511 -1194 -608 -1413 -137 -310 -205 -446 -246
-499 -33 -41 -98 -76 -179 -97 l-48 -11 0 -44 0 -44 43 7 c54 10 548 10 605 0
l42 -7 0 44 0 44 -107 26 c-112 28 -133 38 -133 63 0 8 43 119 96 247 l95 233
222 4 c122 3 316 2 432 -1 l210 -5 87 -210 c48 -115 87 -224 88 -242 0 -45
-32 -66 -140 -93 l-90 -22 0 -45 0 -44 38 8 c50 10 697 10 745 0 l37 -8 0 45
0 45 -105 32 c-71 22 -112 40 -129 58 -46 48 -565 1216 -775 1744 l-83 207
-44 0 c-37 0 -46 -4 -53 -22z m178 -856 c100 -238 181 -434 181 -436 0 -7
-544 -14 -636 -8 l-101 7 178 425 c98 234 181 431 184 439 3 8 7 12 9 10 2 -2
85 -199 185 -437z"/>
<path d="M3795 3540 c-4 -6 5 -24 19 -41 39 -46 49 -100 50 -278 l1 -165 -165
-23 c-160 -23 -251 -25 -366 -7 -51 7 -58 -5 -44 -77 15 -76 12 -282 -5 -411
-42 -318 -169 -654 -323 -857 -75 -98 -108 -151 -94 -151 24 0 134 94 189 161
118 145 200 292 272 486 52 142 77 294 91 551 6 108 13 198 14 199 2 2 392 53
408 53 3 0 9 -30 12 -67 4 -38 8 -87 11 -110 l4 -42 -57 -16 c-119 -33 -282
-87 -287 -96 -3 -4 9 -16 26 -25 39 -20 95 -14 219 22 46 13 89 24 95 24 6 0
16 -30 23 -66 13 -68 39 -116 72 -134 45 -24 175 -42 250 -36 140 13 281 58
295 95 3 8 -2 46 -11 85 -10 39 -21 88 -26 109 -5 20 -13 37 -18 37 -5 0 -18
-31 -30 -70 -27 -92 -57 -125 -121 -139 -75 -16 -254 -14 -288 4 -32 16 -37
24 -46 89 -7 44 -6 46 21 57 16 6 63 17 104 26 101 21 180 51 180 69 0 37
-108 44 -218 14 -39 -11 -76 -20 -82 -20 -6 0 -10 41 -10 105 0 58 3 105 8
105 4 0 79 9 166 20 308 38 332 27 269 -125 -37 -91 -23 -98 57 -31 74 61 119
86 153 86 13 0 32 6 43 14 19 14 18 15 -6 42 -29 31 -152 114 -199 133 -27 12
-38 11 -75 -3 -54 -21 -378 -68 -389 -57 -4 4 -6 55 -5 112 l3 104 111 6 c123
8 146 11 249 41 90 26 107 40 71 63 -38 25 -124 22 -257 -8 -64 -15 -130 -27
-148 -27 -35 0 -37 8 -21 74 5 25 5 46 -1 58 -18 33 -178 64 -194 38z"/>
<path d="M4030 2376 c0 -7 7 -31 16 -52 14 -33 17 -82 18 -294 l1 -255 -55 -7
c-30 -3 -77 -9 -104 -13 l-49 -6 5 270 c5 265 5 271 -16 289 -31 29 -61 42
-95 42 -37 0 -48 -16 -27 -39 22 -24 41 -233 51 -556 0 -14 -166 -32 -375 -40
-96 -4 -182 -11 -189 -15 -11 -6 -2 -16 34 -39 76 -48 112 -55 208 -37 202 38
676 86 837 86 58 0 168 -7 245 -15 166 -17 291 -19 300 -5 18 30 -75 107 -165
136 -51 17 -60 16 -254 -5 -111 -12 -213 -25 -228 -28 -28 -5 -28 -5 -27 43 1
160 17 386 28 397 20 20 12 62 -16 89 -61 57 -143 88 -143 54z"/>
<path d="M4436 2318 c-2 -7 -7 -32 -9 -56 -4 -28 -24 -72 -63 -135 -84 -136
-107 -177 -100 -184 19 -20 289 231 302 281 7 30 -13 59 -56 81 -45 23 -70 27
-74 13z"/>
<path d="M3440 2207 c0 -34 82 -196 118 -235 36 -38 51 -38 70 2 18 36 7 116
-22 158 -27 41 -110 98 -142 98 -18 0 -24 -5 -24 -23z"/>
</g>
</svg>
