<svg version="1" xmlns="http://www.w3.org/2000/svg" width="2133.333" height="2133.333" viewBox="0 0 1600.000000 1600.000000"><path d="M192 207.9V288H64v1088h7.3c26.4.1 109.5 2.1 125.7 3 165.7 9 321.9 35.7 468.5 80 45.4 13.7 95.1 31.4 122.6 43.5 5.7 2.5 11 4.5 11.9 4.5.9 0 6.2-2 11.9-4.5 47-20.7 129.2-47.2 205.6-66.4 124.1-31.1 249.3-49.6 386-57.1 15.7-.9 98.9-2.9 125.3-3h7.2V288h-128V127.7l-49.2.6c-93.3 1-171.6 9.6-266.3 29.3-99.6 20.7-209.8 56.5-287.8 93.4l-4.7 2.2-15.3-7C688.5 201.8 555.1 163 433.1 144c-67.4-10.5-121.5-15-191.8-15.7l-49.3-.6v80.2zm101-10.8c150.5 8.3 319.8 46.8 453 103.1 9.1 3.9 17.7 7.5 19.3 8.1l2.7 1.1v492.9c0 393.9-.3 492.8-1.2 492.4-106.9-44.5-217.3-74.9-337.8-93.1-47.3-7.2-105-12.7-147-14.1-9.6-.3-19.4-.8-21.7-1.1l-4.3-.5V195.4l9.3.3c5 .2 17.5.8 27.7 1.4zm1051 493.3v495.5l-4.2.5c-2.4.3-12.2.8-21.8 1.1-43.1 1.4-98.8 6.8-149.8 14.5-116.7 17.5-229.1 48.7-334.9 92.7-1 .4-1.3-98.5-1.3-492.4V309.4l2.8-1.1c1.5-.6 10.1-4.2 19.2-8.1 141.1-59.6 320.9-98.8 480-104.5 4.1-.2 8.1-.4 8.8-.5.9-.2 1.2 99.4 1.2 495.2zM192 799.5V1248h9.3c26.4.1 87.8 2.1 106.7 3.5 102.9 7.5 202.8 26.2 306 57.1 59.1 17.7 126.7 43.2 169.3 63.6l16.7 8.1 16.8-8.1c42.4-20.4 109.9-45.8 169.2-63.6 103.4-31 203-49.6 306-57.1 18.9-1.4 80.3-3.4 106.8-3.5h9.2V351h64v962.7l-24.2.7c-189.8 5.4-376 35.1-545.6 87.2-34.1 10.5-78.9 26.2-97.4 34.3l-4.8 2-4.7-2c-18.5-8-63.7-23.9-97.8-34.4-169-51.9-355.7-81.8-545.2-87.1l-24.3-.7V351h64v448.5z"/><path d="M468.2 444.7c-.5 1.6-39.7 106.1-86.9 232.3-47.3 126.2-87 232.1-88.1 235.2L291 918H378.7l20.4-61 20.4-61 93.4.3 93.4.2 21.1 60.7 21.1 60.8h43.8c24 0 43.7-.3 43.7-.8 0-.4-39.7-107.5-88.2-238L559.6 442h-90.4l-1 2.7zM551.3 636l33.4 95.5-71.5.3c-39.3.1-71.7 0-72-.3-.3-.2 14.4-43.6 32.6-96.2 30.2-87.5 35.5-103.8 37.8-117.3.7-4.3.8-4 3.5 9 2.3 10.9 9.4 32.4 36.2 109zM1040.1 445.8c-2.2 2.2-2.3 2.9-1.9 10.8.4 6.9.8 8.8 2.6 10.7 1.2 1.3 1.9 2.7 1.5 3.1-.5.4-.3.6.2.4 1.4-.4 7.6 4.4 17.4 13.9 24.8 23.7 47 34 57 26.6 4.7-3.6 5.9-6.4 6.5-15.4.4-4.7.8-9.6 1.1-10.8.2-1.1-.3-3.7-1.1-5.6-1.8-4.5-13.3-20.5-14.6-20.5-.6 0-5.8-2.3-11.5-5.1-5.8-2.8-12.8-5.8-15.7-6.6-9.7-2.7-12.9-3.4-14.3-2.9-.8.3-1.2.2-.9-.2.2-.4-5-.7-11.7-.7-11.4 0-12.4.2-14.6 2.3zm70.2 66.9c-1.3.2-3.3.2-4.5 0-1.3-.2-.3-.4 2.2-.4s3.5.2 2.3.4zM1125.2 492.5c0 1.6.2 2.2.5 1.2.2-.9.2-2.3 0-3-.3-.6-.5.1-.5 1.8zM1220.3 521c-2.3.5-5.1 1.4-6.2 2-2.9 1.5-7.8 2.3-14.1 2.2-4.1 0-5 .2-3.5.9 1.3.6-.1.7-4.2.3-3.5-.3-6.3-.2-6.3.3 0 .4-4.8 1-10.7 1.1-7.3.2-12.5.9-16.4 2.2-3.2 1.1-6.8 2-7.9 2-1.1 0-2 .4-2 .8 0 .5-1.6.7-3.5.6-1.9-.2-3.5.1-3.5.7s-1.2.9-2.8.8c-1.5-.2-3.3 0-4 .5-.7.4-3.1.5-5.4.1-3.1-.6-3.9-.4-3.3.5.6.9-.3 1-3.4.5-2.2-.4-4.1-.3-4.1.2 0 .4-3.3.9-7.3 1-8.7.2-20.8 2.1-22.2 3.4-.5.5-1.9.9-3 .9-1.2 0-2.5.3-2.9.7-.4.4-1.9.8-3.4.8s-3.2.4-3.9.8c-.6.4-2.8.5-4.7.3-2.4-.3-3.4-.1-3 .6.5.8-.6.9-3.5.4-2.3-.3-4-.3-3.8.1.3.5-2.5.9-6.3 1-3.7.1-8.7.8-11.1 1.6-2.4.8-7.4 1.8-11.2 2.2-3.7.3-6.5 1-6.3 1.4.3.3-.8.6-2.2.5-1.5-.1-3.2.3-3.9.8-.7.5-2.2.9-3.5.7-1.3-.1-3.1.1-4 .6-1 .4-2.5.4-3.4.1-.9-.4-2.4-.1-3.2.6-1.2 1-1.4 1-.8 0 .4-.6.2-1.2-.3-1.2-.6 0-1.1.4-1.1.8 0 .5-1.9.9-4.2.8-4.6 0-16.8 2.4-16.8 3.4 0 .3-1.6.4-3.6.2-2-.3-3.4 0-3.1.4.3.5-1.3.8-3.5.6-2.6-.3-3.8-.1-3.4.6.4.7-.8.8-3.6.5-3-.5-3.9-.3-3.4.6.5.8-.5 1-3.9.6-3.1-.4-4.5-.2-4 .4.4.7-.8 1-3.2.9-3.8-.1-3.8-.2-8.2-9.5-4.4-9.2-8.9-14.4-14.6-16.8-2.9-1.2-8.8-1.2-10.3-.1-2.4 1.7-4.2 7.7-4.2 13.8 0 8.1-4.1 20.2-10.3 30.1-5.2 8.5-7.5 10.9-9.2 10-.5-.4-.7-.3-.3.2 1.1 1.2-3.7 9.6-7.6 13.4-2 1.9-4.1 5-4.7 6.9-.9 2.7-1.6 22.3-.8 24.2.1.3.3 1.4.4 2.6.5 4.6 4.1 14 6.9 18.3 3.2 4.6 9.5 9 13.2 9.1 2.2 0 9.6-4.9 12.6-8.4 1-1.2 3.4-5.5 5.4-9.6 2-4.1 4.6-8.8 5.7-10.5 1.2-1.6 2.2-3.4 2.3-4 .7-4.8 5-17.9 6.7-20.6 1.1-1.9 2.2-4.5 2.4-5.9.2-1.4 1.3-5.3 2.4-8.7 2.2-6.9 2.8-7.2 12.9-7.3 20.6-.4 26.9-.8 31-2.4 8.2-3.2 13.3-4.6 16.2-4.6 1.5 0 2.8-.5 2.8-1.1 0-.6.6-.9 1.4-.6.7.3 2.9.1 4.7-.3 6.3-1.7 21.4-5.9 21.4-6 0-.4 5.4-1.1 8.3-1.1 1.8 0 3-.5 2.7-1-.4-.5.9-.7 2.9-.4 2.2.2 3.6 0 3.6-.7 0-.5.7-.7 1.6-.4.9.3 3.5.1 5.8-.6 2.2-.6 5-1.3 6.1-1.4 4.4-.5 20.1-3.5 21.5-4.1 2.1-1 6.6-1.4 12.8-1.4 2.8 0 5.2-.4 5.2-.9s.6-.7 1.3-.4c.8.3 4.3 0 7.8-.7 3.5-.6 7.9-1.3 9.6-1.6 1.8-.3 3.1-.8 2.9-1.2-.2-.3 1.7-.5 4.2-.3 3.1.2 4.2 0 3.4-.6-.9-.6.6-.8 4-.5 3.4.3 4.8.1 4-.5-.9-.6.5-.8 4-.5 3.9.3 4.9.2 3.8-.6-1.1-.8-.2-.9 3.3-.6 3.4.3 4.6.2 4.1-.6-.5-.9.8-1 4.5-.7 3.1.3 4.7.2 3.9-.3-.8-.6.6-.9 3.7-.9 2.8 0 6.1-.3 7.5-.5 2.2-.5 2.2-.4.5.4-1.9.9-1.9 1 .3 1 1.2.1 2.2-.3 2.2-.8 0-.9 8.6-2 16.5-2.1 3.2-.1 3.6-.3 2-1-2-.9 18.5-.4 23.2.6 1.3.2 2.9 1.7 3.8 3.3 1.8 3.7.7 10.9-2.9 18.5-1.4 2.8-3.5 8.5-4.7 12.6-1.2 4.1-3.3 9-4.6 10.7-1.3 1.8-2.2 3.3-1.9 3.3.2 0-.2 2.6-1 5.7-1.7 7.4-1.7 8.3 0 8.3.8 0 1.6.4 1.8 1 .2.5 2.9 1 6.1 1.1 4.9.2 6.3-.2 10-2.8 5-3.5 23.4-13.3 25.1-13.3.7 0 3.4-1.4 6-3.1 2.7-1.6 8.4-4.3 12.8-5.9 4.4-1.6 8.6-3.4 9.2-3.9.7-.6 3.7-1.7 6.7-2.4 3-.8 8.7-2.6 12.7-4 3.9-1.4 7.2-2.3 7.2-2.1 0 .1 1.1-.8 2.5-2.2 2.1-2.1 2.5-3.4 2.5-8.2 0-6.9-1.2-8.8-8.2-13.5-2.9-1.9-6.4-4.7-7.8-6.2-1.4-1.5-5.4-4.7-9-7.2-3.6-2.5-8.7-6.3-11.5-8.4-2.7-2-7.2-4.8-10-6.2-13.4-6.5-13.4-6.5-25.5-6.5-6.3 0-13.4.4-15.7.8zm-304.6 30.2c-.2 1.3-.4.3-.4-2.2s.2-3.5.4-2.3c.2 1.3.2 3.3 0 4.5zm293.6-1.5c-1.3.2-3.5.2-5 0-1.6-.2-.5-.4 2.2-.4 2.8 0 4 .2 2.8.4zM903.7 664.2c-2 .7-3.5.7-5 0-1.8-.9-1.4-1.1 2.8-1.1 4.6.1 4.8.1 2.2 1.1z"/><path d="M1093 578c-1.1.8-.7.9 2 .5 1.9-.3 5.1-.1 7 .4 2.8.8 1.8.9-5.3.8-4.8 0-9.1.3-9.6.9-1.8 1.7-1.6 11.7.2 15.1 1 1.8 1.5 3.3 1.3 3.3-.3 0 .2 2.1 1 4.7.8 2.7 1.7 6.6 1.9 8.7.3 2.1.9 4.4 1.3 5 .8 1.4 1.3 5.3 1.5 13.3.1 3.3.5 5.7.8 5.1 1-1.5 2.1 19.6 1.4 24.7-.4 2.5-.3 4.5.1 4.5.5 0 1 1 1.1 2.3.4 4 .9 5.5 2.3 7.3 1.1 1.3 1.1 1.6.2 1-.7-.4 1.7 2.4 5.5 6.4 10.1 10.7 21.9 17.5 31.2 17.9 1.9.1 4 .6 4.7 1.2.7.6 2.9.7 5.1.4 2.5-.4 3.3-.3 2.5.3-2.4 1.7 19.9 3.5 30.7 2.6l9.6-.9-17-.6c-16.8-.6-16.7-.6 5-.4 12.1 0 20.7-.2 19-.6-1.7-.5-.1-.6 3.9-.3 4.9.4 6.6.3 6.1-.5-.4-.7.4-1.2 2.2-1.2 7.8-.1 9.3-.3 9.3-1.1 0-.5.4-.7.8-.4.5.3 3-.1 5.5-.9 2.6-.8 4.9-1.4 5.2-1.4 1.3-.1 11.5-7.5 11.5-8.3 0-.5.4-.7.8-.4.5.3.9 0 1-.7 0-.7.4-3 .8-5.1.5-2.8.4-3.7-.4-3.2-.7.4-1 .2-.6-.7 1.4-3.8-10-12.7-24.1-18.9-9-3.9-10.7-4.4-16.9-4.2-5.8.2-7.4.7-11 3.2-5 3.6-19.4 11-22.1 11.5-1.1.1-2.6.6-3.4 1.1-2.2 1.4-17.2 1.1-18.1-.4-.4-.7-1.2-1-1.7-.7-.5.3-2.7-.3-4.9-1.2-3.4-1.6-4.4-2.8-6.5-7.7-2.4-5.9-3.1-15.4-1.7-21.4.3-1.4.9-4.8 1.3-7.5.3-2.8 1.6-8 2.7-11.7 1.1-3.9 1.7-7.6 1.3-8.9-.5-1.4-.3-1.9.3-1.5 2 1.2 2.3-5 .6-9.5-2.3-6-2.6-6.3-11.2-11.6-12.1-7.6-30.4-13.1-34.2-10.3zm45.7 27.2c-.3.8-.6.5-.6-.6-.1-1.1.2-1.7.5-1.3.3.3.4 1.2.1 1.9zm-41 58c-.3.8-.6.5-.6-.6-.1-1.1.2-1.7.5-1.3.3.3.4 1.2.1 1.9zM967.3 591.7c.9.2 2.5.2 3.5 0 .9-.3.1-.5-1.8-.5-1.9 0-2.7.2-1.7.5zM1003.4 597.8c-.7.4 1.9.7 5.7.7 3.8 0 6.1-.3 5.1-.7-2.3-.9-9.4-.9-10.8 0zM1008.3 599.7l-9.3.4v13.4c0 7.9-.4 13.6-1 14-.6.3-.7 1.7-.4 3.1.3 1.3.2 3-.4 3.7-.5.6-.9 1.9-1 2.7 0 2.2-7.7 22.5-10.9 29-1.6 3-5.8 10-9.4 15.5-3.6 5.5-7.4 11.4-8.5 13.2-3.1 5.2-16.7 21.4-22.5 26.9-8.2 7.9-19.8 21.4-18.3 21.4.4 0 .2.6-.3 1.2-.5.7-1 3-1.2 5l-.3 3.8 4.9.1c4.4.1 4.5.2 1.8 1-2.2.6-1.7.7 2 .3 14.4-1.6 38.2-17.6 57.4-38.7 11.8-13 20.6-24.1 25.2-31.9 2.2-3.7 4.7-7.1 5.5-7.6.9-.5 1.5-1.2 1.5-1.6-.2-1.2 3.2-7.1 7.9-13.7 2.6-3.6 5.6-8.1 6.5-10 1-1.9 2.7-4.4 3.9-5.6 3-2.9 9.6-16.2 8.5-16.9-.5-.3-.9-1.5-.8-2.7.1-2 .2-2 .9.3.7 2.2.8 2.2.9.4.1-3-3.5-9.9-7.2-13.7-3.2-3.1-23.4-13.9-25.3-13.5-.5.1-5.1.4-10.1.5zM1209.3 617.7c.9.2 2.5.2 3.5 0 .9-.3.1-.5-1.8-.5-1.9 0-2.7.2-1.7.5zM879.3 624.5c0 3.3.2 4.5.4 2.7.2-1.8.2-4.5 0-6s-.4 0-.4 3.3z"/><path d="M1093.1 626.6c0 1.1.3 1.4.6.6.3-.7.2-1.6-.1-1.9-.3-.4-.6.2-.5 1.3zM1095.2 654c0 1.9.2 2.7.5 1.7.2-.9.2-2.5 0-3.5-.3-.9-.5-.1-.5 1.8zM1149.8 729.7c1.8.2 4.5.2 6 0s0-.4-3.3-.4-4.5.2-2.7.4zM1140.7 731.2c1.1.5.1.6-2.4.3-2.3-.3-4.4-.1-4.7.3-.3.5-1.9.7-3.6.4-1.6-.2-3 0-3 .5 0 .6-1 .8-2.3.6-1.2-.2-3.6.1-5.2.8-1.7.7-3.2 1.3-3.5 1.4-.3 0-4.1.9-8.5 1.9-4.4 1-8.4 2.1-9 2.4-.5.3-1.6.7-2.5.8-14 1.9-19 2.8-19 3.3 0 .3-1.5.6-3.2.7-3.9.1-8.4.9-15.7 3-3.1.9-6.6 1.2-8.3.9-2.1-.5-2.8-.4-2.4.4.5.7-.8.9-4.1.5-3.6-.4-4.4-.3-3.3.5 1.1.8.2.9-3.4.4-2.9-.3-4.7-.2-4.4.3.4.5-3.2 1-8.2 1.1-4.9 0-9.5.5-10.2.9-.7.5-4.9 1-9.3 1.2-7.9.4-12.6 2-15.2 5.2-1.6 2-1.6 9.2 0 11.1 3.5 4.3 21.4 12.6 24.4 11.5.8-.3 1.1-.2.8.3-.9 1.5 10.1 2.4 22.2 1.8 8.2-.4 11.3-.2 11.4.6.1.7.1 3 .1 5.2-.1 3.9 0 3.9.8 1 .8-2.5.9-2.1.6 2.2-.2 2.9 0 5.6.5 6 .7.7 1.8 20.5 3.5 59l.7 15.3-2.4.8c-2.6 1-26.2 2.7-37.2 2.7-3.7 0-6.7.4-6.7.8 0 .5-5.2.6-11.5.2-6.8-.4-11.5-.4-11.5.2 0 .5-1.7.8-3.7.6-3.2-.2-3.4-.1-1.3.6 1.7.5-.4.8-6 .7-4.7 0-10.1.2-12 .6-1.9.4-5.1.7-7 .8-2.9.1-3.2.3-1.5 1 1.4.7.3.8-3.7.6-3.2-.2-5.9.1-6 .6-.2.4-6 .9-12.9 1.1-7.1.1-12.2.6-11.5 1 .6.5-3.2.7-8.4.4-6.1-.3-8.3-.2-6 .4 3 .7 2.8.7-1.7.5-2.9-.2-5.3.1-5.3.5 0 .5-.9.9-2 .9-1.3 0-2 .7-2 1.9 0 1.1-.6 2.1-1.2 2.4-1 .3-1 .9 0 2.8.7 1.4 1.4 3.3 1.6 4.3.4 3 12.4 12.3 19.3 15.1 3.5 1.4 6.8 2.3 7.4 2 .5-.4.9-.3.9.2 0 1.3 26.4.7 30.7-.8 2.1-.7 4.4-1.2 5.1-1 .8.1 1.9-.2 2.5-.7.7-.5 2.7-.9 4.5-.7 1.7.1 3.2-.1 3.2-.5s5.6-1.5 12.4-2.5c7.2-1.1 12.2-2.3 11.9-2.9-.4-.5-.1-.6.6-.1 1.6.9 14.3-.4 13.6-1.5-.3-.4 1.3-.6 3.5-.3 2.8.4 4 .2 4-.7 0-.8 1.3-1.1 3.9-.8 2.2.2 3.7 0 3.5-.4-.3-.5 1.9-.9 4.8-1 6.1-.1 6.7-.2 20.8-1.3 7.6-.6 9.8-1.1 8-1.6-1.5-.5.1-.6 4.1-.3 3.6.3 14.2 0 23.5-.6 9.3-.7 27.9-1.6 41.4-2l24.5-.8-29.4.4c-16.2.2-29.3.2-29 0 .2-.2 16.7-1 36.5-1.6 42.5-1.5 116 0 117.9 2.4 1.2 1.6 25.7 2.8 29.5 1.5 2-.7 1.7-.7-1.5-.4-2.2.2-9.2 0-15.5-.4l-11.5-.8 17.1-.1c12.2 0 17.6-.3 19.1-1.2 2.9-1.9 5.3-6.3 5.2-9.7-.2-2.6-.2-2.6-.9.7l-.8 3.5.1-4.1c.2-6.7-1.9-9.9-10.7-16.6-7.5-5.7-28.6-16.8-31.9-16.8-.8 0-2.8-.7-4.3-1.5-3.7-1.9-17.7-2-23-.1-3.8 1.3-16 3.2-17.8 2.8-.4-.2-1.4.2-2.1.8-.7.6-2.5.8-3.9.4-1.7-.4-2.6-.2-2.6.6s-1.2 1-4.1.5c-3.1-.5-4-.4-3.4.5.6.9-.3 1-3.5.5-3.1-.5-4.1-.4-3.5.4.5.9-.7 1-4.4.5-2.9-.4-5.1-.3-5.1.2s-1.8.8-4 .6c-2.2-.2-4 0-4 .5s-1.3.8-3 .5c-1.6-.2-3 0-3 .5s-1.5.9-3.2 1c-3.8.1-9.8 1.1-14.8 2.3-1.9.5-5 .7-6.9.4-2.3-.4-3.1-.2-2.6.6s-.9 1-5.2.6c-4.1-.4-5.2-.3-3.8.4 1.4.7.3.8-4 .5-3.3-.3-5.2-.2-4.3.2 1 .5-2.6.8-8 .9h-9.7l1.7-17.5c1-9.8 1.6-20.7 1.3-24.6-.4-5.2-.3-6.6.5-5.5.9 1.1 1 .3.5-3.4-.4-2.9-.3-4.6.3-4.2 1.1.7 2.2-7.4 2.2-17.2 0-7.6-2.5-14.7-5.5-15.9-2-.7-1.9-3.3 0-3.3.8 0 1.5-.4 1.5-.8 0-.5.8-.9 1.8-.9 5.5.1 9.3-.4 8.9-1.1-.3-.4 1.8-.7 4.6-.8 2.8-.1 5.3-.6 5.4-1.1.2-.5 1.7-.7 3.3-.5 1.7.2 3 0 3-.6 0-.5 3-1.3 6.8-1.8 3.7-.4 6.9-.8 7.2-.9.3-.1 2.4-.5 4.8-1 2.3-.4 4.5-1.1 4.8-1.6.2-.5 1.8-.6 3.4-.2 1.7.3 3 .1 3-.4s1.4-.7 3.1-.5c1.8.3 2.9.1 2.6-.4-.2-.5 1.8-1 4.6-1.2 2.8-.1 5.3-.6 5.6-1 .3-.4 1.3-.7 2.1-.7.8.1 2-.2 2.5-.6.6-.4 3-1 5.5-1.4 6.8-1.1 10-4.6 10-10.9 0-4.5-.4-5.3-4.3-9.1-6.2-5.9-12.8-7.7-28.4-7.9-6.9-.1-11.6.2-10.6.6zm-104.9 51.5c-3.2.2-8.4.2-11.5 0-3.2-.2-.6-.3 5.7-.3s8.9.1 5.8.3zm54.9 50.5c-.2 1.3-.4.5-.4-1.7-.1-2.2.1-3.2.4-2.3.2 1 .2 2.8 0 4zm-1 9.5c-.3 1-.5.4-.5-1.2 0-1.7.2-2.4.5-1.8.2.7.2 2.1 0 3zm-1 11c-.3 1-.5.4-.5-1.2 0-1.7.2-2.4.5-1.8.2.7.2 2.1 0 3zm142.1-2c-2.1.2-5.7.2-8 0-2.4-.2-.7-.4 3.7-.4s6.3.2 4.3.4zm-143.1 11.5c-.3.8-.6.5-.6-.6-.1-1.1.2-1.7.5-1.3.3.3.4 1.2.1 1.9zm-93.9 15.5c-1 .2-2.6.2-3.5 0-1-.3-.2-.5 1.7-.5s2.7.2 1.8.5zm90.9 19c-2 .2-5.2.2-7 0-1.7-.2 0-.4 3.8-.4 3.9 0 5.3.2 3.2.4zm-13.9 1c-1.6.2-4 .2-5.5 0-1.6-.2-.3-.4 2.7-.4s4.3.2 2.8.4z"/><path d="M986.2 763c0 1.4.2 1.9.5 1.2.2-.6.2-1.8 0-2.5-.3-.6-.5-.1-.5 1.3zM1049.3 804c0 3 .2 4.3.4 2.7.2-1.5.2-3.9 0-5.5-.2-1.5-.4-.2-.4 2.8zM1050.1 822.7c0 6.2.2 11.3.7 11.3.4 0 .6-3.9.4-8.7-.4-13.8-.9-14.8-1.1-2.6zM1051.4 847c0 6.9.1 9.7.3 6.2.2-3.4.2-9 0-12.5-.2-3.4-.3-.6-.3 6.3zM1052.3 867c0 3.6.2 5 .4 3.2.2-1.7.2-4.7 0-6.5-.2-1.7-.4-.3-.4 3.3zM1043.8 873.7c.7.3 1.6.2 1.9-.1.4-.3-.2-.6-1.3-.5-1.1 0-1.4.3-.6.6zM1026.3 874.7c.9.2 2.3.2 3 0 .6-.3-.1-.5-1.8-.5-1.6 0-2.2.2-1.2.5zM1014.8 875.7c1.2.2 3 .2 4 0 .9-.3-.1-.5-2.3-.4-2.2 0-3 .2-1.7.4zM1002.3 876.7c.9.2 2.5.2 3.5 0 .9-.3.1-.5-1.8-.5-1.9 0-2.7.2-1.7.5zM924.8 883.7c.7.3 1.6.2 1.9-.1.4-.3-.2-.6-1.3-.5-1.1 0-1.4.3-.6.6zM913.8 884.7c.6.2 1.8.2 2.5 0 .6-.3.1-.5-1.3-.5-1.4 0-1.9.2-1.2.5zM1187.2 896.7c5.9.2 15.8.2 22 0 6.2-.1 1.4-.3-10.7-.3s-17.2.2-11.3.3zM1226.8 897.7c3.4.2 8.8.2 12 0 3.1-.2.3-.3-6.3-.3s-9.2.1-5.7.3z"/></svg>